<svg width="200" height="149" viewBox="0 0 200 149" fill="none" xmlns="http://www.w3.org/2000/svg">
<path fill-rule="evenodd" clip-rule="evenodd" d="M63.9142 1.11698C54.1327 2.79127 45.8175 6.34016 37.911 12.2145C30.405 17.7914 26.7385 22.737 23.0876 32.2063C22.0777 34.8255 21.8633 36.5492 21.8512 42.1371C21.8362 49.2378 22.3752 51.9572 25.3696 59.8857C28.9975 69.4928 38.7473 82.9125 48.4315 91.6296C50.8518 93.8081 51.0345 94.1229 50.344 94.922C48.4488 97.1144 47.8061 98.5203 47.5905 100.944C47.1697 105.676 50.2696 109.953 55.6918 112.121C58.9064 113.407 66.3178 113.539 69.2805 112.362C76.6487 109.437 79.8564 103.321 77.0424 97.5645C74.1321 91.6127 65.8296 88.7679 57.594 90.9007C55.7028 91.3905 54.1125 91.7911 54.0606 91.7911C53.909 91.7911 49.2004 87.1963 46.0492 83.9732C29.4851 67.0325 22.0218 45.8039 27.6377 31.602C31.642 21.476 38.7387 14.2151 49.812 8.91498C68.8978 -0.220085 87.5704 2.23303 105.639 16.2494C109.916 19.5667 111.221 19.8093 113.624 17.7327C120.464 11.8232 130.584 6.52102 138.181 4.86702C147.523 2.83311 159.553 3.8452 167.746 7.35437C193.78 18.5056 201.735 39.673 189.155 64.3229C185.236 72.0039 177.267 82.2584 170.148 88.7831L167.667 91.0575L162.479 91.1073C158.587 91.1445 156.716 91.3651 154.986 91.9893C152.528 92.8767 142.474 99.7163 140.926 101.554C140.416 102.159 138.135 104.156 135.857 105.991C128.388 112.007 127.079 113.181 124.064 116.556C121.018 119.967 118.084 124.361 116.651 127.656L115.848 129.504L112.361 129.283C108.877 129.062 104.065 127.772 102.971 126.765C102.652 126.472 102.041 125.507 101.613 124.621C100.714 122.761 100.22 122.391 98.1128 122.004C96.9779 121.794 96.2695 121.95 95.3783 122.603C93.1356 124.247 94.4261 126.442 98.2102 127.418C99.3198 127.705 101.465 128.478 102.978 129.138C104.657 129.87 107.602 130.597 110.541 131.003L115.355 131.67L115.637 135.303C115.849 138.034 116.291 139.509 117.418 141.247C118.243 142.518 119.193 144.358 119.53 145.335C119.868 146.312 120.545 147.406 121.035 147.765C123.788 149.783 128.172 146.37 125.733 144.107C125.337 143.739 123.959 142.962 122.67 142.38C119.779 141.074 118.384 138.348 118.384 134.001C118.384 131.399 118.503 131.092 119.507 131.092C121.703 131.092 129.739 128.971 134.045 127.255C137.78 125.767 143.227 123.015 148.934 119.732C149.726 119.276 151.611 118.032 153.123 116.968C154.634 115.904 156.32 115.03 156.87 115.027C157.418 115.023 160.523 113.151 163.767 110.868C170.862 105.874 172.737 103.394 172.762 98.9751C172.772 97.2492 172.434 95.7486 171.851 94.9381C170.925 93.6483 170.926 93.6467 173.907 90.8648C185.154 80.3698 192.779 69.2892 197.407 56.7163C199.696 50.4988 200.391 39.0467 198.814 33.5489C197.222 28.002 193.555 21.5757 189.447 17.133C186.165 13.5846 177.988 7.88091 172.621 5.39736C169.752 4.0696 162.118 1.85778 157.868 1.1229C153.745 0.409992 145.863 0.336039 141.114 0.965694C136.783 1.54041 128.841 3.99057 124.725 6.02279C122.981 6.8836 119.115 9.27629 116.133 11.3398C113.151 13.4033 110.557 15.0218 110.369 14.9368C110.18 14.8519 107.789 13.2186 105.056 11.3072C98.5929 6.78894 93.4964 4.35822 86.394 2.40629C81.1936 0.977526 79.9815 0.807646 74.0013 0.673686C69.661 0.576069 66.1783 0.729045 63.9142 1.11698ZM10.9071 86.0887C11.4195 89.6 10.9105 90.1007 6.8267 90.1007C2.8766 90.1007 1.9509 89.8113 1.9509 88.5765C1.9509 88.0203 1.69152 87.5652 1.3745 87.5652C1.05748 87.5652 0.798096 88.1053 0.798096 88.7649C0.798096 89.641 1.19466 90.0978 2.26619 90.4553C4.07264 91.0587 8.26597 91.0925 10.3197 90.5203C11.1595 90.2862 12.1492 90.2317 12.5187 90.3995C13.7309 90.9489 20.0569 90.8631 22.491 90.2643C24.422 89.7888 25.1379 89.7779 26.2642 90.2064C28.3709 91.008 39.2949 90.9239 40.005 90.1007C40.9907 88.9589 40.6489 87.5593 39.2943 87.1921C37.538 86.7158 36.233 87.0382 34.1534 88.4628C32.0622 89.8945 31.3475 89.9887 31.3475 88.833C31.3475 88.3681 31.0881 87.9878 30.7711 87.9878C30.454 87.9878 30.1947 88.3478 30.1947 88.7878C30.1947 89.2277 29.8304 89.69 29.3854 89.8155C28.1628 90.1595 26.2036 89.6638 26.5057 89.0869C26.8031 88.5186 23.2813 87.1426 21.529 87.1426C20.9059 87.1426 20.3958 87.3328 20.3958 87.5652C20.3958 87.7976 21.1584 87.9878 22.091 87.9878C23.6882 87.9878 24.9085 88.6234 24.245 89.1098C23.6433 89.5509 19.0833 90.1206 18.0602 89.8827C17.4827 89.7483 16.897 89.2192 16.7587 88.7075L16.5074 87.7765L16.0889 88.6982C15.6249 89.7212 14.4715 90.1912 13.2605 89.8506C12.4103 89.6114 11.7665 87.5035 11.7561 84.924C11.7526 84.0527 11.4696 83.3393 11.1272 83.3393C10.7047 83.3393 10.6338 84.2204 10.9071 86.0887ZM6.58288 85.645C6.20014 85.9835 6.06066 86.4673 6.27392 86.72C6.48719 86.9727 6.32292 87.4786 5.90964 87.8437C5.26522 88.4129 5.31998 88.4852 6.29237 88.3478C7.16505 88.2249 7.44056 87.8234 7.48783 86.6089C7.557 84.8213 7.53855 84.8011 6.58288 85.645ZM15.2082 86.3224C15.2082 86.5683 15.4676 86.6524 15.7846 86.5087C16.1016 86.3651 16.361 86.1639 16.361 86.0612C16.361 85.9585 16.1016 85.8749 15.7846 85.8749C15.4676 85.8749 15.2082 86.0764 15.2082 86.3224ZM16.9374 86.3224C16.9374 86.5683 17.1968 86.6524 17.5138 86.5087C17.8308 86.3651 18.0902 86.1639 18.0902 86.0612C18.0902 85.9585 17.8308 85.8749 17.5138 85.8749C17.1968 85.8749 16.9374 86.0764 16.9374 86.3224ZM39.3295 88.606C39.5969 89.6164 38.4591 90.0864 35.7252 90.0944L33.4744 90.1007L34.5724 89.2057C36.6181 87.5382 38.9692 87.2419 39.3295 88.606ZM67.2902 94.0629C71.3982 95.3214 74.4578 99.4953 73.7627 102.894C72.5384 108.88 64.1805 112.189 57.5179 109.327C49.4523 105.861 49.8079 97.3189 58.1502 94.1445C60.2927 93.3293 64.7656 93.2896 67.2902 94.0629ZM165.386 95.714C166.486 96.4074 166.998 97.2137 167.208 98.5816C167.669 101.576 165.883 103.79 159.258 108.436C156.116 110.64 153.545 112.699 153.545 113.012C153.545 113.647 148.304 117.465 144.322 119.73C135.898 124.522 124.238 128.954 120.004 128.974C119.124 128.978 119.16 128.697 120.365 126.098C121.896 122.8 126.36 117.347 130.808 113.343C135.783 108.863 141.618 104.588 143.288 104.199C144.146 103.998 147.259 102.202 150.205 100.207C155.587 96.5629 157.125 95.7566 159.852 95.1498C162.417 94.5789 163.811 94.7213 165.386 95.714ZM2.02295 99.5033C1.97972 101.722 2.18146 103.201 2.5273 103.201C3.20112 103.201 3.21611 100.425 2.5567 97.7073C2.15149 96.0385 2.08636 96.2587 2.02295 99.5033ZM5.31018 99.292C5.42719 101.093 5.74133 102.737 6.00936 102.944C6.41399 103.258 11.3428 103.416 15.3137 103.243C16.5149 103.191 17.1057 101.937 16.61 100.49C16.0486 98.8495 15.2249 99.1762 15.3696 100.982C15.4895 102.484 15.3978 102.574 13.6231 102.699C11.9498 102.818 11.7498 102.716 11.7498 101.748C11.7498 100.411 11.0598 100.348 10.3013 101.616C9.92947 102.237 9.2326 102.567 8.29134 102.567C7.05668 102.567 6.82958 102.355 6.70392 101.088C6.15807 95.5622 4.9701 94.0316 5.31018 99.292ZM26.8821 98.8694C27.1812 102.193 26.9968 102.778 25.6497 102.778C25.0059 102.778 24.226 102.027 23.4202 100.628C22.7089 99.3934 21.9244 98.5935 21.5786 98.7502C21.1791 98.9311 21.2806 99.4547 21.8806 100.305C23.1141 102.054 22.5706 102.922 20.3889 102.687C19.4419 102.586 18.6666 102.637 18.6666 102.802C18.6666 103.294 20.4684 103.449 24.2865 103.282L27.889 103.126V99.5713C27.889 97.2758 27.6654 96.0169 27.2573 96.0169C26.8365 96.0169 26.7109 96.9686 26.8821 98.8694ZM30.201 98.0242C30.2125 101.721 30.7618 103.108 32.3291 103.396C35.3097 103.944 37.0469 102.64 36.2878 100.424C35.7518 98.8571 34.9546 99.202 35.0284 100.968C35.0785 102.164 34.8468 102.576 34.0577 102.693C32.0628 102.991 31.3475 101.997 31.3475 98.9235C31.3475 97.2674 31.0996 96.0169 30.7711 96.0169C30.454 96.0169 30.1975 96.92 30.201 98.0242ZM61.0939 96.6855C60.9014 97.0531 60.744 98.0885 60.744 98.9865V100.619L58.0061 100.748C55.384 100.871 55.2607 100.935 55.0884 102.243C54.7656 104.693 58.7981 106.573 64.3846 106.579C67.8983 106.583 68.8137 106.008 68.8137 103.796C68.8137 99.3076 66.4129 96.0169 63.139 96.0169C62.1251 96.0169 61.3031 96.2857 61.0939 96.6855ZM9.44414 104.891C9.44414 105.124 9.70352 105.314 10.0205 105.314C10.3376 105.314 10.5969 105.124 10.5969 104.891C10.5969 104.659 10.3376 104.469 10.0205 104.469C9.70352 104.469 9.44414 104.659 9.44414 104.891ZM11.1734 104.891C11.1734 105.124 11.4327 105.314 11.7498 105.314C12.0668 105.314 12.3262 105.124 12.3262 104.891C12.3262 104.659 12.0668 104.469 11.7498 104.469C11.4327 104.469 11.1734 104.659 11.1734 104.891ZM34.2295 104.891C34.2295 105.124 34.4889 105.314 34.8059 105.314C35.1229 105.314 35.3823 105.124 35.3823 104.891C35.3823 104.659 35.1229 104.469 34.8059 104.469C34.4889 104.469 34.2295 104.659 34.2295 104.891Z" fill="#58595B"/>
</svg>
